<svg id="Layer_1" data-name="Layer 1" xmlns="http://www.w3.org/2000/svg" xmlns:xlink="http://www.w3.org/1999/xlink" viewBox="0 0 954.2 305.43"><defs><style>.cls-1{fill:none;stroke:#1f1a50;stroke-miterlimit:10;stroke-width:11.9px;}.cls-2{fill:url(#linear-gradient);}.cls-3{fill:#fff;}.cls-4{fill:#ec1e24;}.cls-5{fill:#1d1751;}</style><linearGradient id="linear-gradient" x1="840.88" y1="348.47" x2="399.63" y2="798.79" gradientUnits="userSpaceOnUse"><stop offset="0" stop-color="#ec1e24"/><stop offset="1" stop-color="#f05822"/></linearGradient></defs><path class="cls-1" d="M584.07,425c6.95-30.79,32.32-53.61,62.57-53.61s55.62,22.82,62.57,53.61" transform="translate(-529.45 -365.46)"/><path class="cls-2" d="M730.49,420.12H565.13a35.68,35.68,0,0,0-35.68,35.67V635.22a35.69,35.69,0,0,0,35.68,35.68H730.49a35.68,35.68,0,0,0,35.67-35.68V455.79A35.67,35.67,0,0,0,730.49,420.12ZM587.36,459.71a10.94,10.94,0,1,1,9.76-9.77A10.94,10.94,0,0,1,587.36,459.71Zm124.07,0a10.94,10.94,0,1,1,9.76-9.77A10.95,10.95,0,0,1,711.43,459.71Z" transform="translate(-529.45 -365.46)"/><path class="cls-3" d="M707.32,507.9a14.9,14.9,0,0,1-14.9,14.89H665.26v.05h-8.48a4.07,4.07,0,0,0-2.88,1.2,4,4,0,0,0-1.2,2.87,4.1,4.1,0,0,0,4.08,4.08H677a4.07,4.07,0,1,1,0,8.14H648.72a4,4,0,0,0-2.87,1.2,4.07,4.07,0,0,0,2.87,6.95h35.14a4.08,4.08,0,0,1,0,8.15H644.18a4.07,4.07,0,1,0,0,8.14h26.75a4.08,4.08,0,1,1,0,8.15H656.78a4.08,4.08,0,1,0,0,8.15h21.61a4.08,4.08,0,0,1,0,8.15H665.26v11.65a18.84,18.84,0,0,1-37.67,0V522.79H600.86a14.9,14.9,0,1,1,0-29.79h91.56A14.9,14.9,0,0,1,707.32,507.9ZM694.23,531a4.07,4.07,0,1,0,4.07,4.07A4.08,4.08,0,0,0,694.23,531Zm7.33,16.29a4.08,4.08,0,1,0,4.07,4.07A4.07,4.07,0,0,0,701.56,547.28Zm-14.49,16.29a4.08,4.08,0,1,0,4.07,4.08A4.08,4.08,0,0,0,687.07,563.57Zm8.56,16.3a4.08,4.08,0,1,0,4.07,4.07A4.07,4.07,0,0,0,695.63,579.87Z" transform="translate(-529.45 -365.46)"/><path class="cls-4" d="M835.61,512.14H815.9a12.26,12.26,0,0,1-12-14.62h0a12.25,12.25,0,0,1,12-9.89h72.8a12.26,12.26,0,0,1,12,14.56h0a12.27,12.27,0,0,1-12,9.95h-25l-18,95.62A13.79,13.79,0,0,1,832.13,619h0a13.78,13.78,0,0,1-13.55-16.33Z" transform="translate(-529.45 -365.46)"/><path class="cls-4" d="M956.05,606.12a10.1,10.1,0,0,1-6.83,10.54A90.38,90.38,0,0,1,921.14,621c-27.25,0-41.23-15.43-41.23-40.33,0-29,21.06-59.26,55.49-59.26,19.36,0,33.18,10.88,33.22,28.63,0,24.21-23.67,33.08-61.84,32.06a19.6,19.6,0,0,0,3,9.81c3.69,4.81,10,7.3,18.23,7.3a62.61,62.61,0,0,0,15.53-1.91,10.06,10.06,0,0,1,12.48,8.78ZM932,542c-13,0-20.58,10.8-22.45,19.61,21.79.23,32.76-2.8,32.76-11.52C942.27,545.34,938.31,542,932,542Z" transform="translate(-529.45 -365.46)"/><path class="cls-4" d="M1043.68,608.44a10.6,10.6,0,0,1-7.94,10.39,78.36,78.36,0,0,1-19.06,2.21c-23.51,0-40.12-14.42-40.12-39.17,0-33.83,25.93-60.34,62.21-60.34a64.33,64.33,0,0,1,7,.38,10.58,10.58,0,0,1,8.87,13.77l-.38,1.19a10.59,10.59,0,0,1-11.28,7.3,38.79,38.79,0,0,0-4.64-.26c-20,0-32.37,17-32.37,34.86,0,13.23,8.3,19.79,18.72,19.79a46.87,46.87,0,0,0,7-.51,10.55,10.55,0,0,1,12,10.39Z" transform="translate(-529.45 -365.46)"/><path class="cls-4" d="M1059.33,602.65l21-110.82a13.77,13.77,0,0,1,13.53-11.22h0A13.78,13.78,0,0,1,1107.38,497L1100,535.86l.39,0c7.85-8.74,17.81-14.45,30.31-14.45,14.86,0,24,9.37,24,25.82a106.77,106.77,0,0,1-1.79,17.17l-8.22,43.34A13.78,13.78,0,0,1,1131.15,619h0a13.78,13.78,0,0,1-13.54-16.35l6.8-35.87a64.08,64.08,0,0,0,1.2-11.82c0-6.29-2.62-10.87-9.63-10.87-9.8,0-19.8,12-23.41,31.23l-6.14,32.46A13.78,13.78,0,0,1,1072.87,619h0A13.77,13.77,0,0,1,1059.33,602.65Z" transform="translate(-529.45 -365.46)"/><path class="cls-5" d="M1189.55,489.85a181.87,181.87,0,0,1,34.49-3.1c13.74,0,23.74,1.71,32.52,6.87,8.76,4.49,15.29,12.92,15.29,24.07,0,16.58-12.21,27-26.44,31.15v.5c12.53,3.94,20.66,14.26,20.63,28.63,0,14.17-7.7,24.4-17.91,31.23-11.21,7.53-27.76,10.67-49.54,10.67-14.8,0-26.67-1-33.11-2.37Zm7,107.51a81.59,81.59,0,0,0,10.82.5c15.17,0,28.95-6,28.95-20.64,0-12.92-11-16.84-24-16.84h-8.74Zm11.32-57.52h9.31c15.42,0,25.9-6.56,25.9-17.78,0-9.47-7.65-13.51-18.39-13.51a52.76,52.76,0,0,0-11,.87Z" transform="translate(-529.45 -365.46)"/><path class="cls-5" d="M1351.57,619A12.58,12.58,0,0,1,1339,605.46c.13-1.75.26-3.54.4-5.35h-.47c-8.75,15.84-21,21-32.08,21-17.08,0-28.86-13.29-28.86-33.21,0-32.13,21.38-66.48,68.28-66.48a111.72,111.72,0,0,1,31.52,4.79l-10,49.87a250.58,250.58,0,0,0-3.6,30.91,12.61,12.61,0,0,1-12.58,12Zm-5.28-75.4a35.32,35.32,0,0,0-7.67-.81c-18.16,0-31.35,22.23-31.38,40,0,9.37,3.78,15.8,11.52,15.8,8.38,0,18.78-9.56,23.12-32.91Z" transform="translate(-529.45 -365.46)"/><path class="cls-5" d="M1384.4,643.42a11.33,11.33,0,0,1,13.35-7.74,73.92,73.92,0,0,0,15.06,1.75c13.9,0,24.4-6.24,28.33-25.28l1.69-8h-.42c-7.42,9.62-16,14.11-27.28,14.11-19,0-30.5-15.32-30.57-34-.16-31.42,22.29-62.77,63.81-62.77a91.3,91.3,0,0,1,35.29,6.65l-14.37,78.59c-3.28,17.53-8.69,33.14-20.06,42.3-10.33,8.28-24.14,10.74-36.91,10.74a91.25,91.25,0,0,1-19.68-2,11.26,11.26,0,0,1-8.24-14.27Zm68.86-98.72a27.83,27.83,0,0,0-10.09-1.73c-17,0-29,18.92-29.07,37,0,9.62,4.25,16.72,12.91,16.72,9.09,0,18.38-10.29,21.37-26.36Z" transform="translate(-529.45 -365.46)"/></svg>