<svg width="53" height="57" viewBox="0 0 53 57" fill="none" xmlns="http://www.w3.org/2000/svg">
<path d="M26.8369 14.1993C26.8461 15.8661 26.3597 17.4979 25.4394 18.8876C24.5192 20.2772 23.2066 21.362 21.6685 22.0041C20.1304 22.6461 18.4361 22.8166 16.8009 22.4936C15.1658 22.1707 13.6635 21.3691 12.4849 20.1905C11.3064 19.0119 10.5047 17.5096 10.1818 15.8745C9.85885 14.2393 10.0292 12.5451 10.6713 11.0069C11.3134 9.46883 12.3982 8.15628 13.7879 7.23602C15.1775 6.31576 16.8094 5.82932 18.4761 5.83851C20.6935 5.83851 22.8201 6.71937 24.3881 8.28733C25.956 9.85529 26.8369 11.9819 26.8369 14.1993Z" fill="white"/>
<path d="M29.0943 29.5371H10.0224C8.98262 29.5359 7.95284 29.7398 6.992 30.1371C6.03117 30.5344 5.15812 31.1174 4.42291 31.8526C3.68769 32.5878 3.10476 33.4608 2.70743 34.4217C2.3101 35.3825 2.1062 36.4123 2.10743 37.452V44.3729H37.0093V37.452C37.0093 35.3529 36.1753 33.3397 34.691 31.8553C33.2067 30.371 31.1935 29.5371 29.0943 29.5371Z" fill="white"/>
<path d="M40.186 1.56535L41.5795 0.171875L44.3664 2.95882L42.973 4.37087L40.186 1.56535Z" fill="#ffffff"/>
<path d="M48.2217 9.61027L49.6152 8.2168L52.4021 11.0037L50.9993 12.4065L48.2217 9.61027Z" fill="#ffffff"/>
<path d="M39.8237 11.0316L42.6107 8.24463L44.0134 9.6381L41.2265 12.425L39.8237 11.0316Z" fill="#ffffff"/>
<path d="M47.8687 2.9681L50.6556 0.181152L52.0584 1.58391L49.2714 4.37085L47.8687 2.9681Z" fill="#ffffff"/>
<path d="M8.28472 56.7468C7.69677 56.7468 7.12207 56.5724 6.63321 56.2457C6.14434 55.9191 5.76332 55.4548 5.53832 54.9116C5.31332 54.3684 5.25442 53.7707 5.36913 53.1941C5.48383 52.6174 5.76698 52.0877 6.18272 51.672C6.59847 51.2562 7.12813 50.9731 7.70479 50.8584C8.28144 50.7437 8.87916 50.8026 9.42236 51.0276C9.96556 51.2526 10.4298 51.6336 10.7565 52.1224C11.0831 52.6113 11.2575 53.186 11.2575 53.774C11.2575 54.1644 11.1806 54.551 11.0312 54.9116C10.8818 55.2723 10.6628 55.6 10.3868 55.876C10.1107 56.1521 9.78303 56.3711 9.42236 56.5205C9.06169 56.6699 8.67511 56.7468 8.28472 56.7468ZM8.28472 52.7893C8.03887 52.8131 7.8107 52.9277 7.64469 53.1106C7.47867 53.2935 7.3867 53.5316 7.3867 53.7787C7.3867 54.0257 7.47867 54.2638 7.64469 54.4467C7.8107 54.6296 8.03887 54.7442 8.28472 54.768C8.4227 54.7814 8.56201 54.7658 8.69359 54.7221C8.82517 54.6785 8.94617 54.6079 9.04882 54.5147C9.15147 54.4215 9.23349 54.3079 9.28963 54.1811C9.34576 54.0544 9.37473 53.9173 9.37473 53.7787C9.37473 53.64 9.34576 53.5029 9.28963 53.3762C9.23349 53.2494 9.15147 53.1358 9.04882 53.0426C8.94617 52.9494 8.82517 52.8788 8.69359 52.8352C8.56201 52.7915 8.4227 52.7759 8.28472 52.7893Z" fill="#ffffff"/>
<path d="M39.7031 40.917C39.7031 41.9937 39.3838 43.0462 38.7856 43.9414C38.1875 44.8366 37.3373 45.5344 36.3425 45.9464C35.3478 46.3585 34.2532 46.4663 33.1972 46.2562C32.1412 46.0462 31.1712 45.5277 30.4099 44.7663C29.6486 44.005 29.1301 43.035 28.92 41.979C28.71 40.923 28.8178 39.8284 29.2298 38.8337C29.6418 37.839 30.3396 36.9888 31.2348 36.3906C32.1301 35.7924 33.1826 35.4731 34.2592 35.4731C35.703 35.4731 37.0877 36.0467 38.1086 37.0676C39.1296 38.0885 39.7031 39.4732 39.7031 40.917Z" fill="#1D1751"/>
<path d="M34.2588 47.8379C32.8874 47.8398 31.5462 47.4346 30.4051 46.6739C29.264 45.9131 28.3743 44.8308 27.8487 43.5641C27.323 42.2974 27.1849 40.9032 27.452 39.558C27.7191 38.2128 28.3794 36.9771 29.3491 36.0074C30.3189 35.0376 31.5546 34.3774 32.8998 34.1103C34.245 33.8431 35.6392 33.9812 36.9059 34.5068C38.1726 35.0325 39.2549 35.9222 40.0157 37.0633C40.7765 38.2044 41.1816 39.5456 41.1797 40.917C41.1773 42.7518 40.4473 44.5107 39.1499 45.8081C37.8525 47.1055 36.0936 47.8355 34.2588 47.8379ZM34.2588 36.9596C33.4761 36.9596 32.711 37.1917 32.0602 37.6265C31.4094 38.0614 30.9021 38.6794 30.6026 39.4026C30.3031 40.1257 30.2247 40.9214 30.3774 41.6891C30.5301 42.4568 30.907 43.1619 31.4605 43.7154C32.0139 44.2688 32.7191 44.6457 33.4868 44.7984C34.2545 44.9511 35.0502 44.8728 35.7733 44.5732C36.4964 44.2737 37.1145 43.7665 37.5493 43.1157C37.9842 42.4649 38.2163 41.6997 38.2163 40.917C38.2163 39.8674 37.7993 38.8608 37.0572 38.1187C36.315 37.3765 35.3084 36.9596 34.2588 36.9596Z" fill="black"/>
<path d="M35.7364 46.3516H32.7729V50.309H35.7364V46.3516Z" fill="black"/>
<path d="M35.7364 31.5156H32.7729V35.4731H35.7364V31.5156Z" fill="black"/>
<path d="M38.2163 36.9597L41.635 34.981L43.1213 37.5542L39.7027 39.5237L38.2163 36.9597Z" fill="black"/>
<path d="M25.3687 44.3542L28.7873 42.3755L30.2737 44.9488L26.8458 46.9275L25.3687 44.3542Z" fill="black"/>
<path d="M25.3779 37.4795L26.855 34.9062L30.283 36.885L28.7966 39.4583L25.3779 37.4795Z" fill="black"/>
<path d="M38.2163 44.8745L39.6934 42.3013L43.1213 44.28L41.635 46.8533L38.2163 44.8745Z" fill="black"/>
<path d="M18.4293 24.093C16.4725 24.093 14.5597 23.5127 12.9327 22.4256C11.3057 21.3385 10.0376 19.7933 9.28874 17.9855C8.53991 16.1776 8.34401 14.1883 8.72576 12.2692C9.10751 10.35 10.0498 8.58711 11.4334 7.20346C12.8171 5.81981 14.5799 4.87752 16.4991 4.49577C18.4183 4.11402 20.4076 4.30995 22.2154 5.05878C24.0233 5.80761 25.5685 7.07571 26.6556 8.70271C27.7427 10.3297 28.3229 12.2425 28.3229 14.1993C28.318 16.8218 27.2741 19.3354 25.4197 21.1898C23.5654 23.0441 21.0518 24.0881 18.4293 24.093ZM18.4293 7.27842C17.0579 7.27658 15.7167 7.6817 14.5756 8.44249C13.4345 9.20329 12.5448 10.2855 12.0192 11.5522C11.4935 12.819 11.3554 14.2131 11.6225 15.5583C11.8896 16.9035 12.5499 18.1392 13.5196 19.109C14.4894 20.0788 15.7251 20.739 17.0703 21.0061C18.4155 21.2732 19.8097 21.1352 21.0764 20.6095C22.3431 20.0838 23.4253 19.1941 24.1861 18.053C24.9469 16.9119 25.3521 15.5708 25.3502 14.1993C25.3478 12.3645 24.6178 10.6056 23.3204 9.30821C22.023 8.01082 20.2641 7.28088 18.4293 7.27842Z" fill="#ffffff"/>
<path d="M20.4079 45.8593H2.09767C1.70347 45.8593 1.32542 45.7027 1.04667 45.424C0.767926 45.1453 0.611328 44.7672 0.611328 44.373V37.4521C0.613788 34.9594 1.60505 32.5696 3.3676 30.8071C5.13015 29.0445 7.51999 28.0532 10.0126 28.0508H26.8271V31.0235H10.0126C8.3068 31.0235 6.67071 31.7005 5.46364 32.9058C4.25658 34.1112 3.57724 35.7463 3.57478 37.4521V42.8959H20.3986L20.4079 45.8593Z" fill="#ffffff"/>
</svg>
