<svg width="66" height="57" viewBox="0 0 66 57" fill="none" xmlns="http://www.w3.org/2000/svg">
<path d="M1.13379 45.853L2.54583 44.4409L5.37922 47.2743L3.96717 48.6864L1.13379 45.853Z" fill="#ffffff"/>
<path d="M9.27148 54.0283L10.6835 52.6069L13.4705 55.3939L12.0584 56.8059L9.27148 54.0283Z" fill="#ffffff"/>
<path d="M0.780273 55.4403L3.56722 52.6533L4.97927 54.0747L2.14588 56.8616L0.780273 55.4403Z" fill="#ffffff"/>
<path d="M62.632 18.8572C62.0385 18.8572 61.4584 18.6812 60.9649 18.3515C60.4715 18.0218 60.0869 17.5531 59.8598 17.0048C59.6326 16.4565 59.5732 15.8532 59.689 15.2712C59.8048 14.6891 60.0906 14.1544 60.5102 13.7348C60.9298 13.3152 61.4645 13.0294 62.0466 12.9136C62.6286 12.7978 63.2319 12.8573 63.7802 13.0844C64.3285 13.3115 64.7972 13.6961 65.1269 14.1895C65.4566 14.683 65.6326 15.2631 65.6326 15.8566C65.6301 16.6516 65.3132 17.4134 64.751 17.9756C64.1888 18.5378 63.427 18.8547 62.632 18.8572ZM62.632 14.8533C62.4335 14.8533 62.2396 14.9121 62.0746 15.0223C61.9096 15.1326 61.781 15.2893 61.705 15.4726C61.6291 15.6559 61.6092 15.8577 61.6479 16.0523C61.6866 16.2469 61.7822 16.4257 61.9225 16.566C62.0628 16.7063 62.2416 16.8019 62.4362 16.8406C62.6308 16.8793 62.8326 16.8594 63.0159 16.7835C63.1992 16.7076 63.3559 16.579 63.4662 16.414C63.5764 16.249 63.6352 16.055 63.6352 15.8566C63.6352 15.5905 63.5296 15.3353 63.3414 15.1471C63.1532 14.959 62.8981 14.8533 62.632 14.8533Z" fill="#ffffff"/>
<path d="M12.5784 29.0199H37.6051C37.8674 29.0199 38.1271 28.9682 38.3695 28.8679C38.6118 28.7675 38.832 28.6204 39.0174 28.4349C39.2029 28.2494 39.35 28.0292 39.4504 27.7869C39.5508 27.5446 39.6024 27.2849 39.6024 27.0226V22.0154C39.6024 21.4857 39.392 20.9776 39.0174 20.6031C38.6429 20.2285 38.1348 20.0181 37.6051 20.0181H12.5784C12.0478 20.0181 11.5388 20.2282 11.1628 20.6025C10.7867 20.9768 10.5742 21.4848 10.5718 22.0154V27.0226C10.5742 27.5531 10.7867 28.0611 11.1628 28.4355C11.5388 28.8098 12.0478 29.0199 12.5784 29.0199Z" fill="#ffffff" stroke="black" stroke-width="2" stroke-miterlimit="10"/>
<path d="M12.5784 47.0424H37.6051C38.1348 47.0424 38.6429 46.8319 39.0174 46.4574C39.392 46.0828 39.6024 45.5748 39.6024 45.0451V40.0379C39.6024 39.5073 39.3923 38.9983 39.018 38.6222C38.6437 38.2462 38.1357 38.0337 37.6051 38.0312H12.5784C12.0462 38.0312 11.5358 38.2427 11.1595 38.619C10.7832 38.9953 10.5718 39.5057 10.5718 40.0379V45.0451C10.5742 45.5756 10.7867 46.0836 11.1628 46.4579C11.5388 46.8322 12.0478 47.0424 12.5784 47.0424Z" fill="#ffffff" stroke="black" stroke-width="2" stroke-miterlimit="10"/>
<path d="M51.1223 29.0199C52.0138 29.0199 52.8853 28.7554 53.6264 28.2599C54.3675 27.7645 54.945 27.0602 55.2857 26.2364C55.6265 25.4126 55.7152 24.5062 55.5406 23.6319C55.366 22.7577 54.9359 21.9549 54.3049 21.3252C53.6738 20.6954 52.8701 20.267 51.9955 20.0942C51.1209 19.9214 50.2147 20.012 49.3916 20.3544C48.5685 20.6969 47.8655 21.2758 47.3715 22.018C46.8776 22.7601 46.6149 23.6321 46.6167 24.5236C46.6167 25.1149 46.7333 25.7003 46.9599 26.2464C47.1864 26.7926 47.5184 27.2886 47.9369 27.7063C48.3554 28.1239 48.8522 28.4549 49.3988 28.6803C49.9454 28.9057 50.531 29.0211 51.1223 29.0199Z" fill="#ffffff" stroke="black" stroke-width="2" stroke-miterlimit="10"/>
<path d="M12.5784 11.0072H37.6051C38.1357 11.0048 38.6437 10.7923 39.018 10.4162C39.3923 10.0402 39.6024 9.5312 39.6024 9.00062V3.99341C39.6024 3.46369 39.392 2.95567 39.0174 2.5811C38.6429 2.20653 38.1348 1.99609 37.6051 1.99609H12.5784C12.0478 1.99609 11.5388 2.20623 11.1628 2.58053C10.7867 2.95484 10.5742 3.46284 10.5718 3.99341V9.00062C10.5718 9.5328 10.7832 10.0432 11.1595 10.4195C11.5358 10.7958 12.0462 11.0072 12.5784 11.0072Z" fill="white" stroke="black" stroke-width="2" stroke-miterlimit="10"/>
<path d="M51.1223 11.0072C52.0134 11.0072 52.8845 10.743 53.6254 10.2479C54.3664 9.7528 54.9438 9.04914 55.2849 8.22586C55.6259 7.40257 55.7151 6.49666 55.5412 5.62267C55.3674 4.74867 54.9383 3.94585 54.3082 3.31574C53.6781 2.68562 52.8752 2.25652 52.0012 2.08267C51.1273 1.90882 50.2213 1.99804 49.3981 2.33906C48.5748 2.68007 47.8711 3.25756 47.376 3.9985C46.881 4.73943 46.6167 5.61054 46.6167 6.50165C46.6167 7.6966 47.0914 8.84261 47.9363 9.68757C48.7813 10.5325 49.9273 11.0072 51.1223 11.0072Z" fill="white" stroke="black" stroke-width="2" stroke-miterlimit="10"/>
<path d="M51.1223 47.0424C52.0134 47.0424 52.8845 46.7781 53.6254 46.283C54.3664 45.788 54.9438 45.0843 55.2849 44.261C55.6259 43.4377 55.7151 42.5318 55.5412 41.6578C55.3674 40.7838 54.9383 39.981 54.3082 39.3509C53.6781 38.7208 52.8752 38.2917 52.0012 38.1178C51.1273 37.944 50.2213 38.0332 49.3981 38.3742C48.5748 38.7152 47.8711 39.2927 47.376 40.0337C46.881 40.7746 46.6167 41.6457 46.6167 42.5368C46.6167 43.7318 47.0914 44.8778 47.9363 45.7227C48.7813 46.5677 49.9273 47.0424 51.1223 47.0424Z" fill="#ffffff" stroke="black" stroke-width="2" stroke-miterlimit="10"/>
</svg>
