<svg width="56" height="52" viewBox="0 0 56 52" fill="none" xmlns="http://www.w3.org/2000/svg">
<path d="M52.3185 47.1209C51.7228 47.1227 51.14 46.9477 50.6438 46.6181C50.1476 46.2885 49.7604 45.8191 49.5311 45.2692C49.3019 44.7194 49.2409 44.1139 49.356 43.5295C49.4711 42.945 49.757 42.4078 50.1776 41.9859C50.5982 41.5641 51.1345 41.2765 51.7186 41.1596C52.3027 41.0427 52.9084 41.1018 53.4589 41.3293C54.0094 41.5568 54.4801 41.9426 54.8112 42.4378C55.1423 42.933 55.3191 43.5153 55.3191 44.111C55.3167 44.9069 55 45.6696 54.4381 46.2333C53.8762 46.797 53.1144 47.116 52.3185 47.1209ZM52.3185 43.117C52.1197 43.117 51.9253 43.176 51.7602 43.2867C51.595 43.3974 51.4664 43.5546 51.3907 43.7385C51.3151 43.9224 51.2957 44.1246 51.3352 44.3194C51.3747 44.5143 51.4712 44.693 51.6124 44.833C51.7537 44.9729 51.9333 45.0677 52.1285 45.1054C52.3238 45.1431 52.5258 45.1218 52.7089 45.0445C52.8921 44.9671 53.0481 44.8371 53.1573 44.6709C53.2664 44.5047 53.3236 44.3098 53.3218 44.111C53.3218 43.9796 53.2958 43.8496 53.2453 43.7284C53.1947 43.6072 53.1207 43.4972 53.0274 43.4048C52.9341 43.3124 52.8234 43.2393 52.7017 43.1899C52.5801 43.1405 52.4498 43.1157 52.3185 43.117Z" fill="#FFFFFF"/>
<path d="M29.6513 1.77737C29.4663 1.77615 29.2829 1.81153 29.1117 1.88148C28.9404 1.95142 28.7846 2.05456 28.6534 2.18494C28.5222 2.31532 28.418 2.47036 28.3469 2.64116C28.2759 2.81196 28.2393 2.99513 28.2393 3.18013V22.986C28.2417 23.3589 28.3916 23.7157 28.6561 23.9785C28.9207 24.2413 29.2784 24.3888 29.6513 24.3888H49.355C49.7279 24.3888 50.0857 24.2413 50.3502 23.9785C50.6148 23.7157 50.7646 23.3589 50.767 22.986C50.7647 17.3779 48.5422 11.9989 44.5854 8.02468C40.6286 4.05048 35.2593 1.80438 29.6513 1.77737Z" fill="#FFFFFF" stroke="black" stroke-width="2.15" stroke-miterlimit="10"/>
<path d="M22.9346 50.1867C25.473 50.1908 27.9911 49.7344 30.3665 48.8397C30.7157 48.7082 30.9987 48.4439 31.1536 48.1044C31.3085 47.765 31.3228 47.3781 31.1933 47.0281L24.3374 28.7179V9.26506C24.3374 8.89303 24.1896 8.53623 23.9266 8.27316C23.6635 8.01009 23.3067 7.8623 22.9346 7.8623C17.3221 7.8623 11.9394 10.0919 7.97073 14.0606C4.00205 18.0292 1.77246 23.4119 1.77246 29.0245C1.77246 34.6371 4.00205 40.0197 7.97073 43.9884C11.9394 47.9571 17.3221 50.1867 22.9346 50.1867Z" fill="white" stroke="black" stroke-width="2.15" stroke-miterlimit="10"/>
<path d="M49.3548 27.7886H29.6512C29.4232 27.7881 29.1986 27.8427 28.9964 27.9479C28.7941 28.053 28.6204 28.2055 28.4899 28.3924C28.3606 28.5786 28.2785 28.7935 28.251 29.0185C28.2235 29.2435 28.2513 29.4719 28.332 29.6837L35.2529 48.2633C35.3167 48.4371 35.4144 48.5964 35.5404 48.732C35.6664 48.8676 35.8182 48.9767 35.9868 49.053C36.3325 49.1925 36.7187 49.1925 37.0644 49.053C41.0852 47.508 44.5451 44.7838 46.9903 41.2378C49.4356 37.6917 50.752 33.4894 50.7669 29.1821C50.7657 28.9979 50.7282 28.8157 50.6566 28.646C50.5849 28.4762 50.4806 28.3223 50.3495 28.1929C50.2184 28.0635 50.063 27.9612 49.8924 27.8918C49.7217 27.8224 49.5391 27.7874 49.3548 27.7886Z" fill="white" stroke="black" stroke-width="2.15" stroke-miterlimit="10"/>
</svg>
