<svg width="55" height="54" viewBox="0 0 55 54" fill="none" xmlns="http://www.w3.org/2000/svg">
<path d="M29.1476 37.5663L32.8635 40.4833C33.0525 40.6291 33.1815 40.8392 33.226 41.0737C33.2706 41.3083 33.2275 41.551 33.105 41.756L30.9963 45.4069C30.8787 45.6126 30.691 45.769 30.4675 45.8475C30.2439 45.926 29.9996 45.9213 29.7793 45.8342L25.348 44.0506C24.1627 45.1196 22.7674 45.9296 21.2512 46.4287L20.5824 51.1387C20.5488 51.3734 20.4317 51.5882 20.2525 51.7435C20.0733 51.8988 19.8441 51.9842 19.6069 51.984H15.3801C15.143 51.9842 14.9137 51.8988 14.7345 51.7435C14.5553 51.5882 14.4382 51.3734 14.4046 51.1387L13.7358 46.4287C12.2139 45.93 10.8124 45.1201 9.6204 44.0506L5.21704 45.8249C4.99691 45.9174 4.75048 45.9259 4.52447 45.8489C4.29847 45.7718 4.10859 45.6145 3.99078 45.4069L1.89128 41.7653C1.77376 41.5582 1.73445 41.3159 1.78048 41.0824C1.82651 40.8488 1.95484 40.6395 2.14212 40.4926L5.85804 37.5663C5.54836 35.999 5.54836 34.3864 5.85804 32.8192L2.14212 29.9022C1.95484 29.7552 1.82651 29.5459 1.78048 29.3124C1.73445 29.0788 1.77376 28.8365 1.89128 28.6295L4.00935 24.9786C4.12543 24.7714 4.3131 24.6137 4.53715 24.535C4.76119 24.4564 5.00621 24.4621 5.22631 24.5512L9.65757 26.3256C10.8432 25.2592 12.2387 24.4523 13.7544 23.9567L14.4232 19.2468C14.4548 19.0103 14.571 18.7934 14.7504 18.6362C14.9298 18.479 15.1601 18.3923 15.3987 18.3921H19.6162C19.8558 18.392 20.0874 18.4784 20.2683 18.6354C20.4492 18.7924 20.5674 19.0095 20.601 19.2468L21.2698 23.9567C22.7911 24.4522 24.1927 25.2589 25.3852 26.3256L29.7886 24.5512C30.01 24.4616 30.2565 24.4555 30.4821 24.5341C30.7077 24.6127 30.8971 24.7707 31.0148 24.9786L33.1236 28.6295C33.2461 28.8344 33.2892 29.0771 33.2446 29.3117C33.2001 29.5463 33.0711 29.7563 32.8821 29.9022L29.1662 32.8377C29.4759 34.405 29.4759 36.0176 29.1662 37.5848L29.1476 37.5663Z" fill="white"/>
<path d="M42.4786 14.8245C42.4805 15.7329 42.2126 16.6215 41.7091 17.3776C41.2055 18.1337 40.4889 18.7233 39.6499 19.0718C38.811 19.4203 37.8875 19.512 36.9964 19.3352C36.1054 19.1585 35.2868 18.7212 34.6445 18.0788C34.0021 17.4365 33.5648 16.6179 33.388 15.7268C33.2112 14.8357 33.3029 13.9122 33.6514 13.0733C33.9999 12.2344 34.5896 11.5177 35.3457 11.0142C36.1018 10.5106 36.9903 10.2428 37.8987 10.2446C39.1127 10.2471 40.2761 10.7304 41.1345 11.5888C41.9929 12.4471 42.4762 13.6106 42.4786 14.8245Z" fill="#FFFFFF"/>
<path d="M22.0968 35.1692C22.0986 36.0777 21.8308 36.9662 21.3272 37.7223C20.8237 38.4784 20.107 39.0681 19.2681 39.4166C18.4292 39.7651 17.5057 39.8567 16.6146 39.68C15.7235 39.5032 14.905 39.0659 14.2626 38.4235C13.6202 37.7812 13.183 36.9626 13.0062 36.0716C12.8294 35.1805 12.9211 34.257 13.2696 33.418C13.6181 32.5791 14.2077 31.8625 14.9638 31.3589C15.7199 30.8553 16.6085 30.5875 17.5169 30.5894C18.7308 30.5918 19.8943 31.0751 20.7527 31.9335C21.611 32.7919 22.0943 33.9553 22.0968 35.1692Z" fill="#FFFFFF"/>
<path d="M37.8853 40.8266L39.3345 39.3867L42.2143 42.2666L40.7744 43.7158L37.8853 40.8266Z" fill="#FFFFFF"/>
<path d="M46.1719 49.104L47.6211 47.6641L50.5009 50.5439L49.061 51.9838L46.1719 49.104Z" fill="#FFFFFF"/>
<path d="M37.5229 50.5439L40.4121 47.6641L41.852 49.104L38.9722 51.9838L37.5229 50.5439Z" fill="#FFFFFF"/>
<path d="M45.8188 42.2573L48.6987 39.3774L50.1386 40.8174L47.2588 43.6972L45.8188 42.2573Z" fill="#FFFFFF"/>
<path d="M51.1462 7.07705C50.5417 7.07705 49.9508 6.8978 49.4482 6.56196C48.9456 6.22612 48.5538 5.74879 48.3225 5.19032C48.0912 4.63184 48.0306 4.01731 48.1486 3.42444C48.2665 2.83156 48.5576 2.28698 48.985 1.85955C49.4125 1.43211 49.9571 1.14102 50.55 1.02309C51.1428 0.905156 51.7574 0.965673 52.3158 1.197C52.8743 1.42833 53.3516 1.82008 53.6875 2.32269C54.0233 2.8253 54.2025 3.41621 54.2025 4.0207C54.2025 4.83129 53.8806 5.60869 53.3074 6.18187C52.7342 6.75504 51.9568 7.07705 51.1462 7.07705ZM51.1462 2.99883C50.9441 2.99883 50.7465 3.05876 50.5785 3.17104C50.4104 3.28333 50.2795 3.44293 50.2021 3.62965C50.1248 3.81637 50.1045 4.02183 50.144 4.22006C50.1834 4.41828 50.2807 4.60036 50.4236 4.74328C50.5665 4.88619 50.7486 4.98352 50.9469 5.02295C51.1451 5.06238 51.3505 5.04213 51.5372 4.96479C51.724 4.88745 51.8836 4.75647 51.9959 4.58843C52.1082 4.42038 52.1681 4.22281 52.1681 4.0207C52.1681 3.74968 52.0604 3.48976 51.8688 3.29812C51.6771 3.10648 51.4172 2.99883 51.1462 2.99883Z" fill="#FFFFFF"/>
<path d="M37.8988 20.9002C36.6898 20.9002 35.508 20.5417 34.5028 19.87C33.4976 19.1984 32.7141 18.2437 32.2514 17.1267C31.7888 16.0098 31.6677 14.7807 31.9036 13.595C32.1395 12.4092 32.7216 11.32 33.5765 10.4652C34.4314 9.61029 35.5205 9.02812 36.7063 8.79226C37.892 8.5564 39.1211 8.67745 40.2381 9.14011C41.355 9.60276 42.3097 10.3862 42.9813 11.3915C43.653 12.3967 44.0115 13.5785 44.0115 14.7875C44.009 16.4079 43.3643 17.9613 42.2184 19.1071C41.0726 20.2529 39.5193 20.8977 37.8988 20.9002ZM37.8988 11.7311C37.2943 11.7311 36.7034 11.9104 36.2008 12.2462C35.6982 12.5821 35.3065 13.0594 35.0751 13.6179C34.8438 14.1764 34.7833 14.7909 34.9012 15.3838C35.0191 15.9766 35.3102 16.5212 35.7377 16.9487C36.1651 17.3761 36.7097 17.6672 37.3026 17.7851C37.8954 17.903 38.51 17.8425 39.0684 17.6112C39.6269 17.3799 40.1042 16.9881 40.4401 16.4855C40.7759 15.9829 40.9552 15.392 40.9552 14.7875C40.9552 13.9769 40.6332 13.1995 40.06 12.6263C39.4868 12.0532 38.7094 11.7311 37.8988 11.7311Z" fill="black"/>
<path d="M39.4221 19.377H36.3657V23.4552H39.4221V19.377Z" fill="black"/>
<path d="M39.4221 6.12939H36.3657V10.2076H39.4221V6.12939Z" fill="black"/>
<path d="M41.1128 11.2205L44.6336 9.18604L46.1665 11.8336L42.6363 13.8681L41.1128 11.2205Z" fill="black"/>
<path d="M29.6309 17.8162L33.1517 15.7817L34.6845 18.4293L31.1544 20.4638L29.6309 17.8162Z" fill="black"/>
<path d="M29.6123 11.778L31.1451 9.13037L34.6753 11.1648L33.1424 13.8124L29.6123 11.778Z" fill="black"/>
<path d="M41.085 18.3737L42.6178 15.7261L46.1386 17.7605L44.6151 20.3988L41.085 18.3737Z" fill="black"/>
<path d="M17.5165 41.2913C16.3053 41.2932 15.1208 40.9357 14.1128 40.2641C13.1048 39.5925 12.3187 38.6371 11.8539 37.5186C11.3891 36.4001 11.2666 35.1689 11.5018 33.9807C11.7369 32.7926 12.3192 31.7008 13.175 30.8437C14.0309 29.9866 15.1217 29.4027 16.3095 29.1657C17.4973 28.9287 18.7287 29.0494 19.8479 29.5125C20.9671 29.9756 21.9237 30.7602 22.5968 31.7672C23.2699 32.7742 23.6292 33.9581 23.6292 35.1693C23.6268 36.7906 22.9823 38.345 21.8367 39.4923C20.6911 40.6396 19.1378 41.2864 17.5165 41.2913ZM17.5165 32.113C16.912 32.113 16.3211 32.2922 15.8185 32.6281C15.3159 32.9639 14.9242 33.4413 14.6928 33.9997C14.4615 34.5582 14.401 35.1727 14.5189 35.7656C14.6368 36.3585 14.9279 36.9031 15.3554 37.3305C15.7828 37.7579 16.3274 38.049 16.9203 38.167C17.5131 38.2849 18.1277 38.2244 18.6861 37.993C19.2446 37.7617 19.7219 37.37 20.0578 36.8674C20.3936 36.3647 20.5729 35.7738 20.5729 35.1693C20.5704 34.3595 20.2476 33.5835 19.675 33.0109C19.1023 32.4382 18.3264 32.1154 17.5165 32.113Z" fill="black"/>
<path d="M19.6256 53.517H15.408C14.8015 53.5147 14.2158 53.295 13.7574 52.8979C13.2989 52.5008 12.9979 51.9525 12.9091 51.3525L12.3702 47.553C11.2987 47.1069 10.29 46.5229 9.36966 45.8158L5.80237 47.2464C5.23913 47.4691 4.61476 47.4829 4.04225 47.2852C3.46974 47.0876 2.98687 46.6915 2.68098 46.1688L0.572208 42.5179C0.27094 41.9916 0.168989 41.3745 0.284963 40.7793C0.400937 40.1841 0.727094 39.6504 1.20391 39.2758L4.2231 36.8976C4.14837 36.3246 4.11114 35.7474 4.11162 35.1697C4.10067 34.5801 4.1286 33.9905 4.19523 33.4046L1.17604 31.045C0.699226 30.6703 0.373069 30.1366 0.257095 29.5414C0.141121 28.9462 0.243072 28.3291 0.544339 27.8028L2.65312 24.1427C2.96038 23.6213 3.44332 23.2265 4.01535 23.029C4.58737 22.8315 5.21105 22.8443 5.77451 23.065L9.35106 24.505C10.2681 23.8003 11.2738 23.2193 12.3424 22.7771L12.8812 18.9682C12.968 18.369 13.2671 17.8209 13.7241 17.4236C14.181 17.0263 14.7654 16.8064 15.3709 16.8037H19.5884C20.1941 16.8038 20.7796 17.0215 21.2383 17.4171C21.697 17.8126 21.9983 18.3598 22.0874 18.9589L22.6262 22.7678C23.6995 23.2103 24.7086 23.7946 25.6268 24.505L29.1941 23.065C29.7574 22.8423 30.3817 22.8286 30.9542 23.0262C31.5267 23.2239 32.0096 23.6199 32.3155 24.1427L34.4243 27.8028C34.7255 28.3291 34.8275 28.9462 34.7115 29.5414C34.5955 30.1366 34.2694 30.6703 33.7925 31.045L30.8013 33.4046C30.9499 34.558 30.9499 35.7256 30.8013 36.879L33.8204 39.2386C34.2973 39.6133 34.6234 40.1469 34.7394 40.7422C34.8554 41.3374 34.7534 41.9545 34.4521 42.4807L32.3433 46.1316C32.0389 46.656 31.5567 47.054 30.984 47.2534C30.4114 47.4528 29.7863 47.4404 29.222 47.2185L25.6454 45.7786C24.7284 46.4833 23.7227 47.0643 22.6541 47.5065L22.1153 51.3153C22.0285 51.9146 21.7294 52.4627 21.2724 52.86C20.8155 53.2572 20.2311 53.4772 19.6256 53.4799V53.517ZM15.9097 50.4607H19.189L19.7928 46.2152C19.834 45.9329 19.9533 45.6676 20.1371 45.4493C20.3209 45.231 20.562 45.0684 20.8333 44.9797C22.1471 44.5474 23.3559 43.8449 24.382 42.9174C24.5931 42.725 24.8545 42.5966 25.1358 42.5473C25.4171 42.4979 25.7066 42.5296 25.9705 42.6387L29.9652 44.2458L31.6095 41.3938L28.2466 38.7741C28.0621 38.6313 27.9126 38.4483 27.8096 38.239C27.7066 38.0297 27.6527 37.7997 27.652 37.5664C27.6383 37.4647 27.6383 37.3616 27.652 37.2599C27.9245 35.8953 27.9245 34.4904 27.652 33.1259C27.5939 32.8475 27.6144 32.5584 27.7112 32.291C27.808 32.0236 27.9772 31.7884 28.2001 31.6117L31.5723 28.9734L29.928 26.1214L25.9612 27.7285C25.6964 27.8322 25.4081 27.861 25.1279 27.8118C24.8478 27.7627 24.5865 27.6374 24.3727 27.4498C23.3388 26.5234 22.1242 25.8212 20.8054 25.3875C20.5324 25.3003 20.2894 25.1383 20.1038 24.9199C19.9182 24.7015 19.7976 24.4354 19.7557 24.1519L19.1518 19.9065H15.8725L15.2687 24.1519C15.2285 24.4347 15.1097 24.7005 14.9257 24.919C14.7417 25.1374 14.5 25.2998 14.2282 25.3875C12.9166 25.8203 11.7085 26.5192 10.6795 27.4405C10.4677 27.6316 10.2069 27.7597 9.92623 27.8106C9.64559 27.8615 9.35631 27.8331 9.09095 27.7285L5.09634 26.1214L3.45205 28.9641L6.82423 31.5931C7.00597 31.7377 7.15292 31.9213 7.25422 32.1304C7.35552 32.3394 7.40857 32.5685 7.40949 32.8008C7.41867 32.909 7.41867 33.0177 7.40949 33.1259C7.12468 34.4892 7.12468 35.8966 7.40949 37.2599C7.46473 37.5377 7.44189 37.8255 7.34349 38.0911C7.2451 38.3568 7.07501 38.59 6.8521 38.7648L3.47992 41.4124L5.12421 44.2551L9.10025 42.6573C9.36272 42.5521 9.64916 42.5217 9.92788 42.5692C10.2066 42.6167 10.4667 42.7405 10.6795 42.9267C11.7125 43.8544 12.9274 44.5568 14.2468 44.989C14.5205 45.0779 14.7639 45.2416 14.9494 45.4616C15.1349 45.6815 15.2552 45.949 15.2966 46.2338L15.9097 50.4607Z" fill="black"/>
</svg>
