<svg width="587" height="368" viewBox="0 0 587 368" fill="none" xmlns="http://www.w3.org/2000/svg">
<path d="M255.189 84.577C255.189 84.577 309.233 124.874 362.2 119.115C415.168 113.356 364.002 60.4713 316.44 37.8076C268.877 15.144 195.029 13.6785 207.259 37.7841C219.49 61.8898 255.189 84.577 255.189 84.577Z" fill="#DFEAFF"/>
<path d="M419.657 53.817C417.63 53.8178 415.61 54.0591 413.64 54.5356C414.064 50.6468 413.688 46.7125 412.536 42.9738C411.383 39.2351 409.479 35.7707 406.939 32.7928C404.398 29.8149 401.276 27.3862 397.763 25.6555C394.249 23.9248 390.419 22.9286 386.507 22.7278C382.595 22.527 378.682 23.126 375.01 24.4879C371.338 25.8498 367.982 27.9461 365.15 30.6483C362.317 33.3505 360.067 36.6017 358.537 40.2027C357.007 43.8037 356.229 47.6788 356.251 51.5905C356.251 51.9945 356.251 52.3984 356.284 52.8024C352.571 50.9749 348.491 50.0086 344.351 49.9756C340.211 49.9426 336.118 50.8437 332.375 52.6117C328.633 54.3797 325.339 56.9689 322.739 60.1861C320.139 63.4032 318.3 67.1652 317.36 71.1912C316.42 75.2173 316.402 79.4034 317.309 83.437C318.216 87.4707 320.023 91.2477 322.597 94.4863C325.17 97.7248 328.442 100.341 332.17 102.14C335.898 103.939 339.984 104.874 344.124 104.875H419.675C426.456 104.875 432.959 102.185 437.754 97.3976C442.548 92.6099 445.242 86.1166 445.242 79.3459C445.242 72.5752 442.548 66.0818 437.754 61.2942C432.959 56.5066 426.456 53.817 419.675 53.817H419.657Z" fill="white" stroke="black" stroke-width="2" stroke-miterlimit="10" stroke-linecap="round"/>
<path d="M380.599 149.986H478.104V115.523L380.599 115.523V149.986Z" fill="white" stroke="black" stroke-width="2" stroke-miterlimit="10" stroke-linecap="round"/>
<path d="M420.4 136.848C422.603 136.848 424.389 135.065 424.389 132.865C424.389 130.665 422.603 128.882 420.4 128.882C418.197 128.882 416.411 130.665 416.411 132.865C416.411 135.065 418.197 136.848 420.4 136.848Z" fill="url(#paint0_linear)" stroke="black" stroke-width="2" stroke-miterlimit="10" stroke-linecap="round"/>
<path d="M406.918 136.848C409.023 136.848 410.728 135.145 410.728 133.043C410.728 130.942 409.023 129.239 406.918 129.239C404.814 129.239 403.108 130.942 403.108 133.043C403.108 135.145 404.814 136.848 406.918 136.848Z" fill="url(#paint1_linear)" stroke="black" stroke-width="2" stroke-miterlimit="10" stroke-linecap="round"/>
<path d="M478.104 139.004H435.142C433.606 139.004 432.134 138.395 431.048 137.31C429.962 136.226 429.352 134.755 429.352 133.222C429.352 131.688 429.962 130.217 431.048 129.133C432.134 128.049 433.606 127.44 435.142 127.44H478.104V139.004Z" fill="url(#paint2_linear)"/>
<path d="M380.599 106.669L478.104 106.669V72.2061L380.599 72.2061V106.669Z" fill="white" stroke="black" stroke-width="2" stroke-miterlimit="10" stroke-linecap="round"/>
<path d="M420.4 93.5264C422.603 93.5264 424.389 91.7431 424.389 89.5432C424.389 87.3434 422.603 85.5601 420.4 85.5601C418.197 85.5601 416.411 87.3434 416.411 89.5432C416.411 91.7431 418.197 93.5264 420.4 93.5264Z" fill="url(#paint3_linear)" stroke="black" stroke-width="2" stroke-miterlimit="10" stroke-linecap="round"/>
<path d="M406.918 93.5263C409.023 93.5263 410.728 91.8229 410.728 89.7217C410.728 87.6204 409.023 85.917 406.918 85.917C404.814 85.917 403.108 87.6204 403.108 89.7217C403.108 91.8229 404.814 93.5263 406.918 93.5263Z" fill="url(#paint4_linear)" stroke="black" stroke-width="2" stroke-miterlimit="10" stroke-linecap="round"/>
<path d="M478.104 95.6826H435.142C433.608 95.6826 432.137 95.0747 431.051 93.9924C429.965 92.91 429.354 91.4417 429.352 89.9098C429.352 88.3763 429.962 86.9056 431.048 85.8212C432.134 84.7369 433.606 84.1277 435.142 84.1277H478.104V95.6826Z" fill="url(#paint5_linear)"/>
<path d="M523.54 113.367H574.042C577.053 113.367 579.494 110.93 579.494 107.923V75.4097C579.494 72.403 577.053 69.9657 574.042 69.9657H523.54C520.529 69.9657 518.088 72.403 518.088 75.4097V107.923C518.088 110.93 520.529 113.367 523.54 113.367Z" fill="url(#paint6_linear)"/>
<path d="M505.496 129.239H549.459C552.146 129.239 554.323 127.064 554.323 124.382V94.5833C554.323 91.901 552.146 89.7265 549.459 89.7265H505.496C502.809 89.7265 500.632 91.901 500.632 94.5833V124.382C500.632 127.064 502.809 129.239 505.496 129.239Z" fill="white" stroke="black" stroke-width="2" stroke-miterlimit="10" stroke-linecap="round"/>
<path d="M501.384 188.831H529.599C531.438 188.831 532.929 187.342 532.929 185.506V163.687C532.929 161.851 531.438 160.362 529.599 160.362H501.384C499.545 160.362 498.054 161.851 498.054 163.687V185.506C498.054 187.342 499.545 188.831 501.384 188.831Z" fill="url(#paint7_linear)"/>
<path d="M547.733 97.8102C549.016 97.8102 550.057 96.7713 550.057 95.4898C550.057 94.2083 549.016 93.1694 547.733 93.1694C546.45 93.1694 545.409 94.2083 545.409 95.4898C545.409 96.7713 546.45 97.8102 547.733 97.8102Z" fill="url(#paint8_linear)" stroke="black" stroke-width="2" stroke-miterlimit="10" stroke-linecap="round"/>
<path d="M540.15 97.8102C541.433 97.8102 542.474 96.7713 542.474 95.4898C542.474 94.2083 541.433 93.1694 540.15 93.1694C538.867 93.1694 537.826 94.2083 537.826 95.4898C537.826 96.7713 538.867 97.8102 540.15 97.8102Z" fill="url(#paint9_linear)" stroke="black" stroke-width="2" stroke-miterlimit="10" stroke-linecap="round"/>
<path d="M532.929 97.8102C534.213 97.8102 535.253 96.7713 535.253 95.4898C535.253 94.2083 534.213 93.1694 532.929 93.1694C531.646 93.1694 530.605 94.2083 530.605 95.4898C530.605 96.7713 531.646 97.8102 532.929 97.8102Z" fill="url(#paint10_linear)" stroke="black" stroke-width="2" stroke-miterlimit="10" stroke-linecap="round"/>
<path d="M542.276 215.182H581.545C584.006 215.182 586 213.191 586 210.734V182.753C586 180.296 584.006 178.305 581.545 178.305H542.276C539.816 178.305 537.821 180.296 537.821 182.753V210.734C537.821 213.191 539.816 215.182 542.276 215.182Z" fill="white" stroke="black" stroke-width="2" stroke-miterlimit="10" stroke-linecap="round"/>
<path d="M543.861 209.513H580.463V206.211H543.861V209.513Z" fill="white" stroke="black" stroke-width="2" stroke-miterlimit="10" stroke-linecap="round"/>
<path d="M559.897 203.115H580.463V200.029H559.897V203.115Z" fill="white" stroke="black" stroke-width="2" stroke-miterlimit="10" stroke-linecap="round"/>
<path d="M563.642 193.933H580.468V190.701H563.642V193.933Z" fill="white" stroke="black" stroke-width="2" stroke-miterlimit="10" stroke-linecap="round"/>
<path d="M439.225 34.2441L476.711 34.2441C478.221 34.2441 479.444 33.0223 479.444 31.5151V4.52069C479.444 3.01349 478.221 1.79166 476.711 1.79166L439.225 1.79166C437.716 1.79166 436.492 3.01349 436.492 4.52069V31.5151C436.492 33.0223 437.716 34.2441 439.225 34.2441Z" fill="white" stroke="black" stroke-width="2" stroke-miterlimit="10" stroke-linecap="round"/>
<path d="M457.971 13.2808L475.517 13.2808V10.2182L457.971 10.2182V13.2808Z" fill="white" stroke="black" stroke-width="2" stroke-miterlimit="10" stroke-linecap="round"/>
<path d="M440.617 24.0981L475.517 24.0981V21.6087L440.617 21.6087V24.0981Z" fill="white" stroke="black" stroke-width="2" stroke-miterlimit="10" stroke-linecap="round"/>
<path d="M68.5107 359.313C68.5107 359.313 -1.23599 290.322 15.862 189.774C32.96 89.2259 60.9409 8.51692 165.092 41.8928C269.242 75.2686 203.95 139.477 336.072 145.785C468.193 152.092 583.242 175.376 559.127 284.03C552.146 315.506 519.487 360.863 477.128 363.194L68.5107 359.313Z" fill="#DFEAFF"/>
<path d="M275.092 184.021C275.092 184.021 274.552 141.39 266.442 116.923C258.332 92.4555 245.579 72.6712 228.631 73.0282C211.682 73.3852 191.86 83.6437 179.789 104.87C167.718 126.096 164.115 159.019 159.091 172.152C154.067 185.285 144.857 208.489 114.591 237.63C84.3256 266.771 83.2436 308.148 106.844 324.527C130.444 340.906 165.578 332.08 165.578 332.08L275.111 226.488L275.092 184.021Z" fill="url(#paint11_linear)" stroke="black" stroke-width="2" stroke-miterlimit="10" stroke-linecap="round"/>
<path d="M409.124 201.833C409.124 201.833 415.07 191.4 411.109 181.236C407.148 171.071 405.342 166.393 409.124 165.134C412.906 163.875 417.591 170.888 417.591 170.888C417.591 170.888 421.016 178.807 424.44 170.531C427.865 162.255 434.709 148.224 434.709 148.224C434.709 148.224 437.95 141.39 442.814 144.086C447.678 146.782 441.911 160.634 441.911 160.634L440.834 164.772C440.834 164.772 451.823 161.536 452.904 174.486C452.904 174.486 462.632 171.428 461.372 185.82C461.372 185.82 466.414 186.539 464.434 195.534L456.146 221.26L409.124 201.833Z" fill="white" stroke="black" stroke-width="2" stroke-miterlimit="10" stroke-linecap="round"/>
<path d="M452.542 176.647C452.542 176.647 448.041 190.499 441.192 188.16C434.343 185.821 440.11 168.732 440.11 168.732" fill="white"/>
<path d="M452.542 176.647C452.542 176.647 448.041 190.499 441.192 188.16C434.343 185.821 440.11 168.732 440.11 168.732" stroke="black" stroke-width="2" stroke-miterlimit="10" stroke-linecap="round"/>
<path d="M459.928 187.619C459.928 187.619 455.064 197.516 449.842 194.815C444.621 192.114 447.49 187.619 447.49 187.619" fill="white"/>
<path d="M459.928 187.619C459.928 187.619 455.064 197.516 449.842 194.815C444.621 192.114 447.49 187.619 447.49 187.619" stroke="black" stroke-width="2" stroke-miterlimit="10" stroke-linecap="round"/>
<path d="M463.352 195.28C463.173 195.896 459.208 204.708 455.063 201.833C450.919 198.958 452.542 195.187 452.542 195.187" fill="white"/>
<path d="M463.352 195.28C463.173 195.896 459.208 204.708 455.063 201.833C450.919 198.958 452.542 195.187 452.542 195.187" stroke="black" stroke-width="2" stroke-miterlimit="10" stroke-linecap="round"/>
<path d="M430.382 185.642L435.97 198.799L446.705 193.918" fill="white"/>
<path d="M430.382 185.642L435.97 198.799L446.705 193.918" stroke="black" stroke-width="2" stroke-miterlimit="10" stroke-linecap="round"/>
<path d="M223.028 153.978C223.028 153.978 230.414 163.875 251.492 159.916C272.571 155.956 262.481 122.86 261.3 113.146C260.119 103.433 254.371 93.5356 254.371 93.5356C254.371 93.5356 252.212 93.5356 239.963 105.772C227.714 118.008 211.677 124.297 211.677 124.297C211.677 124.297 196.182 113.686 192.941 125.556C189.7 137.426 206.113 140.85 206.113 140.85V187.619L234.393 195.355C234.393 195.355 253.313 180.423 253.313 179.526C253.313 178.629 251.473 159.916 251.473 159.916" fill="white"/>
<path d="M223.028 153.978C223.028 153.978 230.414 163.875 251.492 159.916C272.571 155.956 262.481 122.86 261.3 113.146C260.119 103.433 254.371 93.5356 254.371 93.5356C254.371 93.5356 252.212 93.5356 239.963 105.772C227.714 118.008 211.677 124.297 211.677 124.297C211.677 124.297 196.182 113.686 192.941 125.556C189.7 137.426 206.113 140.85 206.113 140.85V187.619L234.393 195.355C234.393 195.355 253.313 180.423 253.313 179.526C253.313 178.629 251.473 159.916 251.473 159.916" stroke="black" stroke-width="2" stroke-miterlimit="10" stroke-linecap="round"/>
<path d="M256.535 110.807C255.816 110.986 248.788 114.405 251.493 121.239C254.197 128.074 257.975 135.631 255.096 137.069" stroke="black" stroke-width="2" stroke-miterlimit="10" stroke-linecap="round"/>
<path d="M201.95 126.815L209.876 130.775" stroke="black" stroke-width="2" stroke-miterlimit="10" stroke-linecap="round"/>
<path d="M242.574 127.717C243.42 127.717 244.107 126.792 244.107 125.65C244.107 124.509 243.42 123.583 242.574 123.583C241.727 123.583 241.04 124.509 241.04 125.65C241.04 126.792 241.727 127.717 242.574 127.717Z" fill="black"/>
<path d="M258.605 123.579C259.252 123.579 259.776 122.774 259.776 121.78C259.776 120.786 259.252 119.981 258.605 119.981C257.958 119.981 257.434 120.786 257.434 121.78C257.434 122.774 257.958 123.579 258.605 123.579Z" fill="black"/>
<path d="M244.103 138.868C244.286 138.868 245.006 145.885 252.212 144.448" stroke="black" stroke-width="2" stroke-miterlimit="10" stroke-linecap="round"/>
<path d="M151.325 361.033L139.988 228.813C139.988 228.813 138.37 204.346 166.472 189.057C194.574 173.767 206.828 175.75 206.828 175.75C206.828 175.75 215.653 193.012 233.49 189.057C251.328 185.102 253.487 172.147 253.487 172.147C253.487 172.147 288.062 182.429 302.654 191.579C317.245 200.729 391.291 240.673 391.291 240.673L409.124 201.819L456.165 221.246L417.869 316.476L310.241 271.435L318.887 361.019L151.325 361.033Z" fill="white" stroke="black" stroke-width="2" stroke-miterlimit="10" stroke-linecap="round"/>
<path d="M212.397 243.924C214.02 243.924 228.071 321.638 228.071 321.638L361.026 342.131V361.019H169.153L145.916 265.498" stroke="black" stroke-width="2" stroke-miterlimit="10" stroke-linecap="round"/>
<path d="M194.508 177.305C194.508 177.305 205.553 200.213 237.079 197.333C237.079 197.333 253.633 198.996 261.3 174.599" stroke="black" stroke-width="2" stroke-miterlimit="10" stroke-linecap="round"/>
<path d="M463.658 359.595H306.463L326.742 264.253H483.932L463.658 359.595Z" fill="white" stroke="black" stroke-width="2" stroke-miterlimit="10" stroke-linecap="round"/>
<path d="M468.757 359.595H311.562L331.842 264.253H489.031L468.757 359.595Z" fill="white" stroke="black" stroke-width="2" stroke-miterlimit="10" stroke-linecap="round"/>
<path d="M138.107 311.924H90.3657V359.595H138.107V311.924Z" fill="white" stroke="black" stroke-width="2" stroke-miterlimit="10" stroke-linecap="round"/>
<path d="M141.597 304.188H83.9492V311.924H141.597V304.188Z" fill="white" stroke="black" stroke-width="2" stroke-miterlimit="10" stroke-linecap="round"/>
<path d="M128.924 299.524C128.924 299.524 130.806 278.044 156.01 271.571C156.01 271.571 157.087 299.416 128.924 299.524Z" fill="white" stroke="black" stroke-width="2" stroke-miterlimit="10" stroke-linecap="round"/>
<path d="M123.247 287.701C123.247 287.701 121.901 272.05 134.87 257.64C147.839 243.229 153.616 240.26 156.038 243.905C158.461 247.55 158.151 253.243 150.746 260.519C143.342 267.795 123.247 287.701 123.247 287.701Z" fill="white" stroke="black" stroke-width="2" stroke-miterlimit="10" stroke-linecap="round"/>
<path d="M116.609 289.796C116.609 289.796 101.961 258.856 96.4383 247.343C90.9158 235.831 86.8327 226.479 89.2317 218.799C91.6308 211.119 98.5974 214.961 104.604 220.96C110.612 226.958 123.115 241.157 125.025 255.498C126.934 269.838 116.609 289.796 116.609 289.796Z" fill="white" stroke="black" stroke-width="2" stroke-miterlimit="10" stroke-linecap="round"/>
<path d="M102.826 289.796C102.826 289.796 85.158 285.601 73.1486 266.592C61.1393 247.583 67.1416 234.393 71.7045 236.31C76.2674 238.226 86.3622 240.673 92.3552 252.158C98.3481 263.642 103.673 279.965 102.826 289.796Z" fill="white" stroke="black" stroke-width="2" stroke-miterlimit="10" stroke-linecap="round"/>
<path d="M81.4231 300.665C81.4231 300.665 86.8281 310.186 81.4231 326.969C76.0182 343.752 63.783 346.401 63.783 346.401C63.783 346.401 58.2605 328.176 62.1037 317.382C65.9469 306.588 74.099 298.58 81.4231 300.665Z" fill="white" stroke="black" stroke-width="2" stroke-miterlimit="10" stroke-linecap="round"/>
<path d="M152.887 275.432C152.887 275.432 130.547 292.22 126.704 304.211" stroke="black" stroke-width="2" stroke-miterlimit="10" stroke-linecap="round"/>
<path d="M150.723 248.781C150.723 248.781 119.977 279.725 119.018 304.207" stroke="black" stroke-width="2" stroke-miterlimit="10" stroke-linecap="round"/>
<path d="M95.2388 224.318C95.2388 224.318 120.457 252.139 116.134 304.169" stroke="black" stroke-width="2" stroke-miterlimit="10" stroke-linecap="round"/>
<path d="M73.1396 241.829C73.1396 241.829 101.002 276.118 107.728 304.188" stroke="black" stroke-width="2" stroke-miterlimit="10" stroke-linecap="round"/>
<path d="M66.4126 335.757C66.4126 335.757 81.3055 276.606 96.4384 304.188" stroke="black" stroke-width="2" stroke-miterlimit="10" stroke-linecap="round"/>
<path d="M306.567 359.596L241.703 361.033V350.601H308.477L306.567 359.596Z" fill="white" stroke="black" stroke-width="2" stroke-miterlimit="10" stroke-linecap="round"/>
<path d="M416.584 318.119C418.345 311.082 415.028 304.194 409.175 302.734C403.323 301.273 397.151 305.794 395.39 312.831C393.629 319.868 396.946 326.756 402.798 328.216C408.651 329.677 414.823 325.156 416.584 318.119Z" fill="url(#paint12_linear)" stroke="black" stroke-width="2" stroke-miterlimit="10" stroke-linecap="round"/>
<path d="M495.956 359.596H54.2197V366.792H495.956V359.596Z" fill="white" stroke="black" stroke-width="2" stroke-miterlimit="10" stroke-linecap="round"/>
<path d="M333.54 46.5739C333.54 46.5739 334.984 69.5899 350.837 78.9512C350.837 78.9512 367.409 71.7552 370.293 47.7717L351.919 37.438L333.54 46.5739Z" fill="url(#paint13_linear)" stroke="black" stroke-width="2" stroke-miterlimit="10" stroke-linecap="round"/>
<path d="M52.5311 170.794C51.5185 170.795 50.5097 170.915 49.5252 171.151C49.5722 170.681 49.6005 170.179 49.6005 169.681C49.6005 165.87 48.0844 162.216 45.3858 159.521C42.6873 156.826 39.0272 155.312 35.2109 155.312C31.3945 155.312 27.7344 156.826 25.0359 159.521C22.3373 162.216 20.8213 165.87 20.8213 169.681C20.8213 169.881 20.8213 170.083 20.8213 170.287C18.9644 169.373 16.9247 168.89 14.8546 168.874C12.7846 168.857 10.7375 169.308 8.86624 170.192C6.995 171.076 5.34792 172.371 4.04796 173.979C2.74801 175.588 1.82876 177.469 1.35883 179.483C0.888901 181.496 0.880433 183.589 1.33407 185.606C1.7877 187.623 2.69171 189.511 3.97861 191.13C5.26552 192.749 6.90208 194.057 8.76611 194.957C10.6301 195.856 12.6735 196.323 14.7437 196.323H52.5169C54.2163 196.356 55.9051 196.05 57.4846 195.423C59.064 194.796 60.5025 193.861 61.7158 192.672C62.9291 191.484 63.8929 190.066 64.5509 188.501C65.2088 186.936 65.5477 185.256 65.5477 183.559C65.5477 181.862 65.2088 180.181 64.5509 178.617C63.8929 177.052 62.9291 175.634 61.7158 174.445C60.5025 173.257 59.064 172.321 57.4846 171.695C55.9051 171.068 54.2163 170.762 52.5169 170.794H52.5311Z" fill="white" stroke="black" stroke-width="2" stroke-miterlimit="10" stroke-linecap="round"/>
<path d="M99.1948 311.924C99.9145 311.924 138.106 321.53 138.106 321.53V311.924H99.1948Z" fill="black"/>
<defs>
<linearGradient id="paint0_linear" x1="420.4" y1="128.882" x2="420.4" y2="136.848" gradientUnits="userSpaceOnUse">
<stop stop-color="#ED1F24"/>
<stop offset="1" stop-color="#F15722"/>
</linearGradient>
<linearGradient id="paint1_linear" x1="406.918" y1="129.239" x2="406.918" y2="136.848" gradientUnits="userSpaceOnUse">
<stop stop-color="#ED1F24"/>
<stop offset="1" stop-color="#F15722"/>
</linearGradient>
<linearGradient id="paint2_linear" x1="453.728" y1="139.004" x2="453.728" y2="127.44" gradientUnits="userSpaceOnUse">
<stop stop-color="#ED1F24"/>
<stop offset="1" stop-color="#F15722"/>
</linearGradient>
<linearGradient id="paint3_linear" x1="420.4" y1="85.5601" x2="420.4" y2="93.5264" gradientUnits="userSpaceOnUse">
<stop stop-color="#ED1F24"/>
<stop offset="1" stop-color="#F15722"/>
</linearGradient>
<linearGradient id="paint4_linear" x1="406.918" y1="85.917" x2="406.918" y2="93.5263" gradientUnits="userSpaceOnUse">
<stop stop-color="#ED1F24"/>
<stop offset="1" stop-color="#F15722"/>
</linearGradient>
<linearGradient id="paint5_linear" x1="453.728" y1="95.6826" x2="453.728" y2="84.1277" gradientUnits="userSpaceOnUse">
<stop stop-color="#ED1F24"/>
<stop offset="1" stop-color="#F15722"/>
</linearGradient>
<linearGradient id="paint6_linear" x1="548.791" y1="113.367" x2="548.791" y2="69.9657" gradientUnits="userSpaceOnUse">
<stop stop-color="#ED1F24"/>
<stop offset="1" stop-color="#F15722"/>
</linearGradient>
<linearGradient id="paint7_linear" x1="515.491" y1="188.831" x2="515.491" y2="160.362" gradientUnits="userSpaceOnUse">
<stop stop-color="#ED1F24"/>
<stop offset="1" stop-color="#F15722"/>
</linearGradient>
<linearGradient id="paint8_linear" x1="547.733" y1="93.1694" x2="547.733" y2="97.8102" gradientUnits="userSpaceOnUse">
<stop stop-color="#ED1F24"/>
<stop offset="1" stop-color="#F15722"/>
</linearGradient>
<linearGradient id="paint9_linear" x1="540.15" y1="93.1694" x2="540.15" y2="97.8102" gradientUnits="userSpaceOnUse">
<stop stop-color="#ED1F24"/>
<stop offset="1" stop-color="#F15722"/>
</linearGradient>
<linearGradient id="paint10_linear" x1="532.929" y1="93.1694" x2="532.929" y2="97.8102" gradientUnits="userSpaceOnUse">
<stop stop-color="#ED1F24"/>
<stop offset="1" stop-color="#F15722"/>
</linearGradient>
<linearGradient id="paint11_linear" x1="182.747" y1="73.0234" x2="182.747" y2="334.454" gradientUnits="userSpaceOnUse">
<stop stop-color="#ED1F24"/>
<stop offset="1" stop-color="#F15722"/>
</linearGradient>
<linearGradient id="paint12_linear" x1="395.39" y1="312.831" x2="416.58" y2="318.134" gradientUnits="userSpaceOnUse">
<stop stop-color="#ED1F24"/>
<stop offset="1" stop-color="#F15722"/>
</linearGradient>
<linearGradient id="paint13_linear" x1="351.916" y1="37.438" x2="351.916" y2="78.9512" gradientUnits="userSpaceOnUse">
<stop stop-color="#ED1F24"/>
<stop offset="1" stop-color="#F15722"/>
</linearGradient>
</defs>
</svg>
