<svg width="586" height="387" viewBox="0 0 586 387" fill="none" xmlns="http://www.w3.org/2000/svg">
<path d="M110.616 378.88C110.616 378.88 -30.122 280.204 5.89786 166.789C41.9177 53.3754 131.18 -17.875 263.508 39.2892C395.835 96.4534 332.238 148.476 484.234 166.789C636.231 185.103 601.12 347.068 489.14 374.951L110.616 378.88Z" fill="#DFEAFF"/>
<path d="M382.614 107.484C382.614 107.484 434.563 146.317 485.478 140.767C536.392 135.218 487.209 84.2547 441.49 62.4102C395.772 40.5657 324.777 39.1806 336.551 62.4102C348.326 85.6398 382.614 107.484 382.614 107.484Z" fill="#DFEAFF"/>
<path d="M381.556 108.045H421.559C421.559 108.045 440.261 109.661 448.237 127.577C456.213 145.493 425.678 254.702 425.678 254.702H315.507C315.507 254.702 319.319 212.923 360.724 212.923C402.129 212.923 428.061 212.47 428.061 212.47" fill="white"/>
<path d="M381.556 108.045H421.559C421.559 108.045 440.261 109.661 448.237 127.577C456.213 145.493 425.678 254.702 425.678 254.702H315.507C315.507 254.702 319.319 212.923 360.724 212.923C402.129 212.923 428.061 212.47 428.061 212.47" stroke="black" stroke-width="2" stroke-miterlimit="10"/>
<path d="M376.139 108.045H416.138C416.138 108.045 434.839 109.661 442.816 127.577C450.792 145.493 427.917 212.923 427.917 212.923H376.139V108.045Z" fill="white" stroke="black" stroke-width="2" stroke-miterlimit="10"/>
<path d="M318.297 254.702L346.35 381.654H360.724L327.06 250.542L318.297 254.702Z" fill="white" stroke="black" stroke-width="2" stroke-miterlimit="10"/>
<path d="M208.122 344.153L250.241 346.23L275.178 219.857L297.873 196.99H238.29C238.29 196.99 221.004 201.136 216.392 234.419C211.78 267.702 208.122 344.153 208.122 344.153Z" fill="white" stroke="black" stroke-width="2" stroke-miterlimit="10"/>
<path d="M392.069 190.386V240.14L323.791 247.939L300.979 346.231H255.957L275.178 219.857C275.178 219.857 274.31 196.99 300.979 196.99C327.648 196.99 392.069 190.386 392.069 190.386Z" fill="white" stroke="black" stroke-width="2" stroke-miterlimit="10"/>
<path d="M329.728 86.3775C330.072 85.5084 332.364 65.7461 332.364 65.7461L359.494 62.2788L360.724 85.187L346.526 97.1459L329.728 86.3775Z" fill="white" stroke="black" stroke-width="2" stroke-miterlimit="10"/>
<path d="M282.106 104.927L247.989 125.726L232.579 93.1353C232.579 93.1353 230.499 87.4139 234.84 81.3666C239.181 75.3193 231.033 73.9115 231.033 73.9115C231.033 73.9115 226.231 82.557 224.151 79.0898C222.071 75.6225 219.602 65.592 219.602 65.592C219.602 65.592 219.43 59.178 213.724 60.7396C208.018 62.3013 213.724 74.4321 213.724 74.4321C213.724 74.4321 208.7 74.0881 207.489 78.9585C207.489 78.9585 203.871 78.438 202.989 85.893C202.989 85.893 198.658 86.7575 200.046 94.0405C200.046 94.0405 211.128 126.282 212.512 128.894C213.896 131.506 230.87 171.189 230.87 171.189L284.552 146.226L267.849 113.676" fill="white"/>
<path d="M282.106 104.927L247.989 125.726L232.579 93.1353C232.579 93.1353 230.499 87.4139 234.84 81.3666C239.181 75.3193 231.033 73.9115 231.033 73.9115C231.033 73.9115 226.231 82.557 224.151 79.0898C222.071 75.6225 219.602 65.592 219.602 65.592C219.602 65.592 219.43 59.178 213.724 60.7396C208.018 62.3013 213.724 74.4321 213.724 74.4321C213.724 74.4321 208.7 74.0881 207.489 78.9585C207.489 78.9585 203.871 78.438 202.989 85.893C202.989 85.893 198.658 86.7575 200.046 94.0405C200.046 94.0405 211.128 126.282 212.512 128.894C213.896 131.506 230.87 171.189 230.87 171.189L284.552 146.226L267.849 113.676" stroke="black" stroke-width="2" stroke-miterlimit="10"/>
<path d="M345.224 67.4798C345.224 67.4798 333.535 78.0536 324.704 69.39C315.873 60.7264 322.109 37.4923 322.109 37.4923L343.062 29.8652L359.684 35.3965C359.684 35.3965 362.804 44.4132 362.456 45.1057C362.108 45.7982 359.164 59.6672 359.164 59.6672L359.512 62.2654L360.724 85.1872L348.312 92.6377L336.556 90.7728L330.049 84.4675L331.546 72.7576" fill="white"/>
<path d="M345.224 67.4798C345.224 67.4798 333.535 78.0536 324.704 69.39C315.873 60.7264 322.109 37.4923 322.109 37.4923L343.062 29.8652L359.684 35.3965C359.684 35.3965 362.804 44.4132 362.456 45.1057C362.108 45.7982 359.164 59.6672 359.164 59.6672L359.512 62.2654L360.724 85.1872L348.312 92.6377L336.556 90.7728L330.049 84.4675L331.546 72.7576" stroke="black" stroke-width="2" stroke-miterlimit="10"/>
<path d="M330.529 78.2842C330.529 78.2842 298.384 93.674 284.529 103.886L267.826 113.631L284.529 146.181C284.529 146.181 283.837 184.841 284.529 184.655C285.221 184.47 394.664 186.918 394.664 186.918L400.38 113.939C400.38 113.939 401.42 92.4428 383.062 86.3774C364.703 80.312 360.553 80.1355 360.553 80.1355C360.553 80.1355 354.489 91.7503 341.851 89.6681C329.213 87.586 330.529 78.2842 330.529 78.2842Z" fill="url(#paint0_linear)" stroke="black" stroke-width="2" stroke-miterlimit="10"/>
<path d="M357.55 118.388L348.312 149.593L388.026 161.611L396.572 137.802" fill="url(#paint1_linear)"/>
<path d="M357.55 118.388L348.312 149.593L388.026 161.611L396.572 137.802" stroke="black" stroke-width="2" stroke-miterlimit="10"/>
<path d="M386.145 161.041L377.169 186.534L278.583 184.954V161.041L349.7 157.682L351.681 150.612L386.145 161.041Z" fill="white" stroke="black" stroke-width="2" stroke-miterlimit="10"/>
<path d="M213.77 75.9756C213.77 75.9756 218.793 83.6705 214.81 86.5493C210.826 89.4281 207.625 80.7419 207.625 80.7419C207.625 80.7419 212.82 89.3421 208.75 91.1527C204.681 92.9633 202.872 87.6854 202.872 87.6854C202.872 87.6854 207.81 94.1854 203.392 96.5255C203.392 96.5255 201.131 97.4942 199.879 93.1534" fill="white"/>
<path d="M213.77 75.9756C213.77 75.9756 218.793 83.6705 214.81 86.5493C210.826 89.4281 207.625 80.7419 207.625 80.7419C207.625 80.7419 212.82 89.3421 208.75 91.1527C204.681 92.9633 202.872 87.6854 202.872 87.6854C202.872 87.6854 207.81 94.1854 203.392 96.5255C203.392 96.5255 201.131 97.4942 199.879 93.1534" stroke="black" stroke-width="2" stroke-miterlimit="10"/>
<path d="M324.474 61.7401C324.474 61.7401 329.294 67.2804 335.358 61.2422L324.474 61.7401Z" fill="white"/>
<path d="M324.474 61.7401C324.474 61.7401 329.294 67.2804 335.358 61.2422" stroke="black" stroke-width="2" stroke-miterlimit="10"/>
<path d="M348.312 36.7997C348.312 36.7997 328.869 45.6398 315.525 33.8485L319.97 32.6354C319.97 32.6354 316.394 17.7299 336.655 16.6888C356.917 15.6477 359.164 29.8652 359.164 29.8652C359.164 29.8652 381.058 39.4114 359.549 62.9805C359.549 62.9805 351.893 62.4555 351.373 56.9061C351.373 56.9061 358.762 47.0249 348.312 47.5454V36.7997Z" fill="url(#paint2_linear)" stroke="black" stroke-width="2" stroke-miterlimit="10"/>
<path d="M323.796 56.9918C326.832 56.9918 329.294 54.0614 329.294 50.4466C329.294 46.8318 326.832 43.9014 323.796 43.9014C320.759 43.9014 318.297 46.8318 318.297 50.4466C318.297 54.0614 320.759 56.9918 323.796 56.9918Z" fill="white" stroke="black" stroke-width="2" stroke-miterlimit="10"/>
<path d="M336.343 58.4677C339.043 58.4677 341.231 55.8088 341.231 52.529C341.231 49.2492 339.043 46.5903 336.343 46.5903C333.644 46.5903 331.456 49.2492 331.456 52.529C331.456 55.8088 333.644 58.4677 336.343 58.4677Z" fill="white" stroke="black" stroke-width="2" stroke-miterlimit="10"/>
<path d="M348.312 47.5454L341.172 51.7052" stroke="black" stroke-width="2" stroke-miterlimit="10"/>
<path d="M329.19 51.7051H331.455" stroke="black" stroke-width="2" stroke-miterlimit="10"/>
<path d="M325.916 51.7006C326.538 51.7006 327.042 51.0035 327.042 50.1435C327.042 49.2836 326.538 48.5864 325.916 48.5864C325.295 48.5864 324.791 49.2836 324.791 50.1435C324.791 51.0035 325.295 51.7006 325.916 51.7006Z" fill="black"/>
<path d="M336.266 54.3936C336.768 54.3936 337.175 53.6356 337.175 52.7007C337.175 51.7657 336.768 51.0078 336.266 51.0078C335.764 51.0078 335.357 51.7657 335.357 52.7007C335.357 53.6356 335.764 54.3936 336.266 54.3936Z" fill="black"/>
<path d="M323.796 46.5902C323.841 46.3322 328.15 45.1825 330.325 47.0429L323.796 46.5902Z" fill="white"/>
<path d="M323.796 46.5902C323.841 46.3322 328.15 45.1825 330.325 47.0429" stroke="black" stroke-width="2" stroke-miterlimit="10"/>
<path d="M334.499 48.5862C334.499 48.5862 339.26 47.8892 341.598 49.6228L334.499 48.5862Z" fill="white"/>
<path d="M334.499 48.5862C334.499 48.5862 339.26 47.8892 341.598 49.6228" stroke="black" stroke-width="2" stroke-miterlimit="10"/>
<path d="M346.35 66.0947C342.818 71.7114 337.322 75.8101 330.936 77.5918L331.532 72.7531C331.532 72.7531 340.571 72.9658 346.35 66.0947Z" fill="black"/>
<path d="M350.853 49.623C350.853 50.2024 350.274 53.5565 348.312 53.4388L350.853 49.623Z" fill="white"/>
<path d="M350.853 49.623C350.853 50.2024 350.274 53.5565 348.312 53.4388" stroke="black" stroke-width="2" stroke-miterlimit="10"/>
<path d="M314.373 185.013H216.365L204.468 127.577H302.476L314.373 185.013Z" fill="white" stroke="black" stroke-width="2" stroke-miterlimit="10"/>
<path d="M314.372 185.529H350.162V178.599H313.043L314.372 185.529Z" fill="white" stroke="black" stroke-width="2" stroke-miterlimit="10"/>
<path d="M381.556 159.651L350.162 156.03L351.681 150.612L381.556 159.651Z" fill="black"/>
<path d="M215.836 88.8623C215.836 88.8623 217.224 93.3661 215.605 97.0642L215.836 88.8623Z" fill="white"/>
<path d="M215.836 88.8623C215.836 88.8623 217.224 93.3661 215.605 97.0642" stroke="black" stroke-width="2" stroke-miterlimit="10"/>
<path opacity="0.73" d="M213.72 96.1862C229.415 96.1862 242.138 83.4493 242.138 67.7376C242.138 52.0259 229.415 39.2891 213.72 39.2891C198.024 39.2891 185.301 52.0259 185.301 67.7376C185.301 83.4493 198.024 96.1862 213.72 96.1862Z" fill="white" stroke="black" stroke-width="2" stroke-miterlimit="10"/>
<path d="M456.833 183.8H145.125V196.976H456.833V183.8Z" fill="white" stroke="black" stroke-width="2" stroke-miterlimit="10"/>
<path d="M245.217 345.71V376.567L184.378 376.114C184.378 376.114 182.529 363.286 196.383 361.15C210.238 359.013 212.905 344.402 212.905 344.402L245.217 345.71Z" fill="white" stroke="black" stroke-width="2" stroke-miterlimit="10"/>
<path d="M299.229 346.23V374.951L227.787 375.53C227.787 375.53 228.691 364.549 246.258 362.123C263.825 359.697 265.226 346.23 265.226 346.23H299.229Z" fill="white" stroke="black" stroke-width="2" stroke-miterlimit="10"/>
<path d="M245.218 376.105H184.378V381.654H245.218V376.105Z" fill="url(#paint3_linear)" stroke="black" stroke-width="2" stroke-miterlimit="10"/>
<path d="M299.247 374.951H227.787V381.654H299.247V374.951Z" fill="url(#paint4_linear)" stroke="black" stroke-width="2" stroke-miterlimit="10"/>
<path d="M421.161 303.587H310.877L308.72 312.893H421.161V303.587Z" fill="white" stroke="black" stroke-width="2" stroke-miterlimit="10"/>
<path d="M167.639 196.976H152.052V378.88H167.639V196.976Z" fill="white" stroke="black" stroke-width="2" stroke-miterlimit="10"/>
<path d="M406.095 254.702L435.707 381.654H449.553L415.446 254.702H406.095Z" fill="white" stroke="black" stroke-width="2" stroke-miterlimit="10"/>
<path d="M453.374 196.976H440.13V381.654H453.374V196.976Z" fill="white" stroke="black" stroke-width="2" stroke-miterlimit="10"/>
<path d="M344.745 254.702L315.525 381.654H303.751L332.364 254.702H344.745Z" fill="white" stroke="black" stroke-width="2" stroke-miterlimit="10"/>
<path d="M425.665 254.702H315.507C315.507 254.702 319.319 212.923 360.724 212.923C402.129 212.923 428.061 212.47 428.061 212.47" fill="white"/>
<path d="M425.665 254.702H315.507C315.507 254.702 319.319 212.923 360.724 212.923C402.129 212.923 428.061 212.47 428.061 212.47" stroke="black" stroke-width="2" stroke-miterlimit="10"/>
<path d="M258.629 164.838C261.459 163.956 262.56 159.402 261.087 154.666C259.615 149.93 256.126 146.806 253.296 147.688C250.466 148.57 249.365 153.124 250.838 157.86C252.31 162.595 255.798 165.719 258.629 164.838Z" fill="url(#paint5_linear)" stroke="black" stroke-width="2" stroke-miterlimit="10"/>
<path d="M513.286 378.187H88.6721V385.121H513.286V378.187Z" fill="white" stroke="black" stroke-width="2" stroke-miterlimit="10"/>
<path d="M139.7 20.2915H86.1311C83.1344 20.2915 80.7051 22.7234 80.7051 25.7232V58.6303C80.7051 61.6302 83.1344 64.062 86.1311 64.062H139.7C142.696 64.062 145.126 61.6302 145.126 58.6303V25.7232C145.126 22.7234 142.696 20.2915 139.7 20.2915Z" fill="white" stroke="black" stroke-width="2" stroke-miterlimit="10"/>
<path d="M145.126 29.2583H80.7051V37.9264H145.126V29.2583Z" fill="url(#paint6_linear)" stroke="black" stroke-width="2" stroke-miterlimit="10"/>
<path d="M260.126 47.3959C272.924 47.3959 283.3 37.0098 283.3 24.1979C283.3 11.3861 272.924 1 260.126 1C247.327 1 236.952 11.3861 236.952 24.1979C236.952 37.0098 247.327 47.3959 260.126 47.3959Z" fill="white" stroke="black" stroke-width="2" stroke-miterlimit="10"/>
<path d="M283.331 10.1343L279.203 6.06056C278.93 5.79294 278.563 5.64307 278.181 5.64307C277.799 5.64307 277.432 5.79294 277.159 6.06056L259.493 24.2613L251.878 16.7248C251.605 16.4572 251.238 16.3073 250.856 16.3073C250.474 16.3073 250.107 16.4572 249.834 16.7248L246.172 20.346C246.037 20.4775 245.931 20.6345 245.858 20.8078C245.785 20.9812 245.748 21.1673 245.748 21.3553C245.748 21.5434 245.785 21.7295 245.858 21.9029C245.931 22.0762 246.037 22.2332 246.172 22.3647L258.38 34.4548C258.723 34.7162 259.143 34.8577 259.574 34.8577C260.005 34.8577 260.424 34.7162 260.768 34.4548L283.317 12.1486C283.452 12.0171 283.558 11.8601 283.631 11.6867C283.704 11.5134 283.741 11.3272 283.741 11.1392C283.741 10.9512 283.704 10.765 283.631 10.5917C283.558 10.4184 283.452 10.2613 283.317 10.1298L283.331 10.1343Z" fill="url(#paint7_linear)"/>
<g opacity="0.75">
<path opacity="0.75" d="M216.301 81.3215V85.0921H212.449V81.7561C211.072 81.7365 209.704 81.5371 208.379 81.1631C207.163 80.8842 205.998 80.4137 204.929 79.769L205.834 75.8763C206.839 76.4516 207.922 76.8799 209.048 77.1482C210.171 77.4721 211.331 77.6456 212.499 77.6642C216.469 77.6642 218.452 76.2746 218.449 73.4954C218.449 71.4313 216.505 70.2363 211.942 68.5163C207.62 66.9683 205.436 64.4651 205.436 61.007C205.436 56.9332 208.452 54.3757 212.458 53.7013V50.6958L216.31 50.3789V53.6334C217.96 53.8378 219.574 54.2657 221.108 54.9053L220.036 58.4812C218.298 57.7607 216.441 57.3693 214.56 57.327C211.707 57.327 209.641 58.7981 209.641 61.1427C209.641 63.0484 210.871 64.1981 215.117 65.8276C220.199 67.774 222.537 70.1186 222.537 73.7715C222.528 77.9041 220.068 80.3665 216.301 81.3215Z" fill="url(#paint8_linear)" stroke="black" stroke-width="2" stroke-miterlimit="10"/>
</g>
<path d="M130.869 260.12C130.869 260.12 129.354 242.444 143.981 226.172C158.609 209.899 165.098 206.536 167.797 210.669C170.497 214.801 170.176 221.211 161.838 229.422C153.5 237.633 130.869 260.12 130.869 260.12Z" fill="white" stroke="black" stroke-width="2" stroke-miterlimit="10"/>
<path d="M115.386 263.347C115.386 263.347 99.4789 229.652 93.4922 217.118C87.5055 204.585 83.0562 194.396 85.6652 186.036C88.2742 177.675 95.839 181.858 102.359 188.389C108.88 194.921 122.467 210.401 124.516 225.999C126.564 241.597 115.386 263.347 115.386 263.347Z" fill="white" stroke="black" stroke-width="2" stroke-miterlimit="10"/>
<path d="M161.82 216.173C161.82 216.173 127.192 251.112 126.098 278.737" stroke="black" stroke-width="2" stroke-miterlimit="10"/>
<path d="M92.1719 192.042C92.1719 192.042 119.569 222.342 114.871 279.018" stroke="black" stroke-width="2" stroke-miterlimit="10"/>
<path d="M98.4117 268.838C98.4117 268.838 83.151 265.217 72.7737 248.745C62.3964 232.273 67.5873 220.858 71.5302 222.519C75.4732 224.18 84.191 226.289 89.3729 236.243C94.5547 246.196 99.1533 260.323 98.4117 268.838Z" fill="white" stroke="black" stroke-width="2" stroke-miterlimit="10"/>
<path d="M72.7739 227.317C72.7739 227.317 96.8429 257.019 102.653 281.322" stroke="black" stroke-width="2" stroke-miterlimit="10"/>
<path d="M138.234 286.798H94.3828V378.173H138.234V286.798Z" fill="url(#paint9_linear)" stroke="black" stroke-width="2" stroke-miterlimit="10"/>
<path d="M141.364 278.737H89.459V286.798H141.364V278.737Z" fill="url(#paint10_linear)" stroke="black" stroke-width="2" stroke-miterlimit="10"/>
<path d="M67.4202 112.269C66.1887 112.273 64.9621 112.425 63.7667 112.721C63.8255 112.128 63.8571 111.531 63.8571 110.911C63.7833 106.317 61.9084 101.936 58.6369 98.713C55.3653 95.4903 50.9594 93.6841 46.3695 93.6841C41.7796 93.6841 37.3736 95.4903 34.102 98.713C30.8305 101.936 28.9556 106.317 28.8818 110.911C28.8818 111.16 28.8818 111.404 28.9044 111.653C26.648 110.539 24.1693 109.95 21.6535 109.929C19.1377 109.908 16.6497 110.457 14.3753 111.534C12.1009 112.61 10.0989 114.188 8.5187 116.147C6.93853 118.107 5.82104 120.399 5.24967 122.852C4.6783 125.305 4.66781 127.855 5.21898 130.312C5.77016 132.77 6.86876 135.071 8.43276 137.043C9.99675 139.016 11.9857 140.61 14.2512 141.705C16.5167 142.801 19.0001 143.37 21.516 143.37H67.4202C71.4942 143.3 75.3779 141.631 78.2345 138.723C81.091 135.814 82.6917 131.898 82.6917 127.819C82.6917 123.74 81.091 119.825 78.2345 116.916C75.3779 114.007 71.4942 112.338 67.4202 112.269Z" fill="white" stroke="black" stroke-width="2" stroke-miterlimit="10"/>
<path d="M509.068 167.699C508.373 167.699 507.681 167.782 507.006 167.944C507.042 167.609 507.06 167.272 507.06 166.934C507.06 164.319 506.022 161.81 504.174 159.96C502.326 158.11 499.82 157.071 497.207 157.071C494.594 157.071 492.088 158.11 490.24 159.96C488.392 161.81 487.354 164.319 487.354 166.934C487.354 167.075 487.354 167.21 487.354 167.351C486.083 166.724 484.687 166.393 483.27 166.382C481.853 166.372 480.452 166.681 479.172 167.288C477.891 167.895 476.764 168.784 475.874 169.888C474.985 170.992 474.356 172.283 474.034 173.664C473.713 175.045 473.707 176.482 474.017 177.865C474.328 179.249 474.946 180.545 475.827 181.656C476.708 182.767 477.828 183.665 479.103 184.282C480.379 184.9 481.778 185.221 483.194 185.221H509.059C510.225 185.248 511.384 185.041 512.469 184.612C513.554 184.184 514.543 183.543 515.377 182.727C516.211 181.911 516.874 180.936 517.326 179.86C517.778 178.784 518.012 177.628 518.012 176.46C518.012 175.293 517.778 174.137 517.326 173.061C516.874 171.985 516.211 171.01 515.377 170.194C514.543 169.378 513.554 168.736 512.469 168.308C511.384 167.88 510.225 167.673 509.059 167.699H509.068Z" fill="url(#paint11_linear)"/>
<path d="M265.226 346.23L299.247 353.599V346.23H265.226Z" fill="black"/>
<path d="M212.797 344.895L245.625 353.599V346.23L212.797 344.895Z" fill="black"/>
<defs>
<linearGradient id="paint0_linear" x1="334.108" y1="78.2842" x2="334.108" y2="186.918" gradientUnits="userSpaceOnUse">
<stop stop-color="#ED1F24"/>
<stop offset="1" stop-color="#F15722"/>
</linearGradient>
<linearGradient id="paint1_linear" x1="372.442" y1="118.388" x2="372.442" y2="161.611" gradientUnits="userSpaceOnUse">
<stop stop-color="#ED1F24"/>
<stop offset="1" stop-color="#F15722"/>
</linearGradient>
<linearGradient id="paint2_linear" x1="342.268" y1="16.6343" x2="342.268" y2="62.9805" gradientUnits="userSpaceOnUse">
<stop stop-color="#ED1F24"/>
<stop offset="1" stop-color="#F15722"/>
</linearGradient>
<linearGradient id="paint3_linear" x1="214.798" y1="376.105" x2="214.798" y2="381.654" gradientUnits="userSpaceOnUse">
<stop stop-color="#ED1F24"/>
<stop offset="1" stop-color="#F15722"/>
</linearGradient>
<linearGradient id="paint4_linear" x1="263.517" y1="374.951" x2="263.517" y2="381.654" gradientUnits="userSpaceOnUse">
<stop stop-color="#ED1F24"/>
<stop offset="1" stop-color="#F15722"/>
</linearGradient>
<linearGradient id="paint5_linear" x1="253.296" y1="147.688" x2="258.639" y2="164.834" gradientUnits="userSpaceOnUse">
<stop stop-color="#ED1F24"/>
<stop offset="1" stop-color="#F15722"/>
</linearGradient>
<linearGradient id="paint6_linear" x1="112.915" y1="29.2583" x2="112.915" y2="37.9264" gradientUnits="userSpaceOnUse">
<stop stop-color="#ED1F24"/>
<stop offset="1" stop-color="#F15722"/>
</linearGradient>
<linearGradient id="paint7_linear" x1="264.745" y1="5.64307" x2="264.745" y2="34.8577" gradientUnits="userSpaceOnUse">
<stop stop-color="#ED1F24"/>
<stop offset="1" stop-color="#F15722"/>
</linearGradient>
<linearGradient id="paint8_linear" x1="213.733" y1="50.3789" x2="213.733" y2="85.0921" gradientUnits="userSpaceOnUse">
<stop stop-color="#ED1F24"/>
<stop offset="1" stop-color="#F15722"/>
</linearGradient>
<linearGradient id="paint9_linear" x1="116.309" y1="286.798" x2="116.309" y2="378.173" gradientUnits="userSpaceOnUse">
<stop stop-color="#ED1F24"/>
<stop offset="1" stop-color="#F15722"/>
</linearGradient>
<linearGradient id="paint10_linear" x1="115.411" y1="278.737" x2="115.411" y2="286.798" gradientUnits="userSpaceOnUse">
<stop stop-color="#ED1F24"/>
<stop offset="1" stop-color="#F15722"/>
</linearGradient>
<linearGradient id="paint11_linear" x1="495.9" y1="157.071" x2="495.9" y2="185.223" gradientUnits="userSpaceOnUse">
<stop stop-color="#ED1F24"/>
<stop offset="1" stop-color="#F15722"/>
</linearGradient>
</defs>
</svg>
